<svg xmlns="http://www.w3.org/2000/svg" version="1.1" xmlns:xlink="http://www.w3.org/1999/xlink" xmlns:svgjs="http://svgjs.dev/svgjs" width="1000" height="1012" viewBox="0 0 1000 1012"><g transform="matrix(1,0,0,1,0.883934426229473,0.40971659919023296)"><svg viewBox="0 0 244 247" data-background-color="#444444" preserveAspectRatio="xMidYMid meet" height="1012" width="1000" xmlns="http://www.w3.org/2000/svg" xmlns:xlink="http://www.w3.org/1999/xlink"><g id="tight-bounds" transform="matrix(1,0,0,1,-0.21567999999999188,-0.09999999999999432)"><svg viewBox="0 0 244.43135999999998 247.2" height="247.2" width="244.43135999999998"><g><svg></svg></g><g><svg viewBox="0 0 244.43135999999998 247.2" height="247.2" width="244.43135999999998"><g transform="matrix(1,0,0,1,0,84.60228214360771)"><svg viewBox="0 0 244.43135999999998 77.99543571278458" height="77.99543571278458" width="244.43135999999998"><g><svg viewBox="0 0 244.43135999999998 77.99543571278458" height="77.99543571278458" width="244.43135999999998"><g><svg viewBox="0 0 244.43135999999998 77.99543571278458" height="77.99543571278458" width="244.43135999999998"><g id="textblocktransform"><svg viewBox="0 0 244.43135999999998 77.99543571278458" height="77.99543571278458" width="244.43135999999998" id="textblock"><g><svg viewBox="0 0 244.43135999999998 77.99543571278458" height="77.99543571278458" width="244.43135999999998"><g transform="matrix(1,0,0,1,0,0)"><svg width="244.43135999999998" viewBox="0.95 -45.15 142.74 45.55" height="77.99543571278458" data-palette-color="#ffffff"><path d="M11.45 0.4Q8.5 0.4 6.1-0.75 3.7-1.9 2.33-4.13 0.95-6.35 0.95-9.5L0.95-9.5 0.95-20.25 9.4-20.25 9.4-10Q9.4-8.85 9.88-8.18 10.35-7.5 11.35-7.5L11.35-7.5Q12.3-7.5 12.78-8.13 13.25-8.75 13.25-9.9L13.25-9.9 13.25-42.95 21.9-42.95 21.9-10.75Q21.9-7.4 20.58-4.88 19.25-2.35 16.88-0.98 14.5 0.4 11.45 0.4L11.45 0.4ZM33.85 0L25.2 0 25.2-42.95 42.4-42.95 42.4-34.6 33.85-34.6 33.85-27.75 41.95-27.75 41.95-19.5 33.85-19.5 33.85 0ZM51.65 0.4Q47.4 0.4 45.82-2.43 44.25-5.25 44.25-10.5L44.25-10.5Q44.25-14.8 45.37-17.1 46.5-19.4 48.5-20.48 50.5-21.55 54.6-22.85L54.6-22.85 57-23.65 57-23.75 57-27.4Q57-28.85 56.42-29.63 55.85-30.4 55.05-30.4L55.05-30.4Q54.35-30.4 53.82-29.75 53.3-29.1 53.3-28L53.3-28 53.3-25.8 44.8-25.8 44.8-27Q44.8-32.4 47.32-34.7 49.85-37 55.55-37L55.55-37Q60.1-37 62.95-34.63 65.8-32.25 65.8-27.9L65.8-27.9 65.8 0 57.1 0 57.1-4.35Q56.45-2.1 55.02-0.85 53.6 0.4 51.65 0.4L51.65 0.4ZM55.1-6.4Q56.1-6.4 56.52-7.23 56.95-8.05 56.95-9.25L56.95-9.25 56.95-19.45Q55-18.7 54.07-17.55 53.15-16.4 53.15-14.35L53.15-14.35 53.15-9.65Q53.15-6.4 55.1-6.4L55.1-6.4ZM69.14 0L69.14-36.6 77.89-36.6 77.89-32.55Q78.54-34.7 80.17-35.88 81.79-37.05 84.19-37.05L84.19-37.05 84.19-29.75Q82.34-29.75 80.12-29.23 77.89-28.7 77.89-28L77.89-28 77.89 0 69.14 0ZM95.04-39.05L86.29-39.05 86.29-45.15 95.04-45.15 95.04-39.05ZM95.04 0L86.29 0 86.29-36.6 95.04-36.6 95.04 0ZM105.14 0.4Q100.89 0.4 99.31-2.43 97.74-5.25 97.74-10.5L97.74-10.5Q97.74-14.8 98.86-17.1 99.99-19.4 101.99-20.48 103.99-21.55 108.09-22.85L108.09-22.85 110.49-23.65 110.49-23.75 110.49-27.4Q110.49-28.85 109.91-29.63 109.34-30.4 108.54-30.4L108.54-30.4Q107.84-30.4 107.31-29.75 106.79-29.1 106.79-28L106.79-28 106.79-25.8 98.29-25.8 98.29-27Q98.29-32.4 100.81-34.7 103.34-37 109.04-37L109.04-37Q113.59-37 116.44-34.63 119.29-32.25 119.29-27.9L119.29-27.9 119.29 0 110.59 0 110.59-4.35Q109.94-2.1 108.51-0.85 107.09 0.4 105.14 0.4L105.14 0.4ZM108.59-6.4Q109.59-6.4 110.01-7.23 110.44-8.05 110.44-9.25L110.44-9.25 110.44-19.45Q108.49-18.7 107.56-17.55 106.64-16.4 106.64-14.35L106.64-14.35 106.64-9.65Q106.64-6.4 108.59-6.4L108.59-6.4ZM132.69 0.4Q121.84 0.4 121.84-10.6L121.84-10.6 121.89-13.5 130.64-13.5 130.69-9.2Q130.69-7.9 131.19-7.23 131.69-6.55 132.84-6.55L132.84-6.55Q134.59-6.55 134.59-9.4L134.59-9.4Q134.59-11.5 133.76-12.7 132.94-13.9 131.14-15.25L131.14-15.25 126.49-18.85Q124.09-20.7 123.04-22.68 121.99-24.65 121.99-28.25L121.99-28.25Q121.99-31.05 123.46-33.02 124.94-35 127.39-36 129.84-37 132.84-37L132.84-37Q143.49-37 143.49-26.4L143.49-26.4 143.49-25.7 134.44-25.7 134.44-27.1Q134.44-28.4 134.01-29.33 133.59-30.25 132.59-30.25L132.59-30.25Q131.69-30.25 131.21-29.73 130.74-29.2 130.74-28.3L130.74-28.3Q130.74-26.3 132.29-25.2L132.29-25.2 137.69-21.25Q140.59-19.1 142.14-16.57 143.69-14.05 143.69-10.2L143.69-10.2Q143.69-5.1 140.79-2.35 137.89 0.4 132.69 0.4L132.69 0.4Z" opacity="1" transform="matrix(1,0,0,1,0,0)" fill="#ffffff" class="wordmark-text-0" data-fill-palette-color="primary" id="text-0"></path></svg></g></svg></g></svg></g></svg></g><g></g></svg></g></svg></g><path d="M0 78.602L0 1 244.431 1 244.431 78.602 237.398 78.602 237.398 8.034 7.034 8.034 7.034 78.602 0 78.602M0 168.598L0 246.2 244.431 246.2 244.431 168.598 237.398 168.598 237.398 239.166 7.034 239.166 7.034 168.598 0 168.598" fill="#ffffff" stroke="transparent" data-fill-palette-color="primary"></path></svg></g><defs></defs></svg><rect width="244.43135999999998" height="247.2" fill="none" stroke="none" visibility="hidden"></rect></g></svg></g></svg>